<?xml version="1.0" encoding="UTF-8" standalone="no"?>
<!-- Created with Inkscape (http://www.inkscape.org/) -->

<svg
   version="1.1"
   id="svg1"
   width="907.08667"
   height="396.85068"
   viewBox="0 0 907.08667 396.85068"
   sodipodi:docname="pysertech(++).ai"
   xmlns:inkscape="http://www.inkscape.org/namespaces/inkscape"
   xmlns:sodipodi="http://sodipodi.sourceforge.net/DTD/sodipodi-0.dtd"
   xmlns="http://www.w3.org/2000/svg"
   xmlns:svg="http://www.w3.org/2000/svg">
  <defs
     id="defs1">
    <clipPath
       clipPathUnits="userSpaceOnUse"
       id="clipPath4">
      <path
         d="M 0,297.638 H 680.315 V 0 H 0 Z"
         transform="translate(-571.45411,-108.28331)"
         id="path4" />
    </clipPath>
    <clipPath
       clipPathUnits="userSpaceOnUse"
       id="clipPath5">
      <path
         d="m 526.391,156.567 h 74.234 v -55.96 h -74.234 z"
         transform="translate(-526.39162,-156.5675)"
         id="path5" />
    </clipPath>
    <clipPath
       clipPathUnits="userSpaceOnUse"
       id="clipPath7">
      <path
         d="M 0,297.638 H 680.315 V 0 H 0 Z"
         transform="matrix(1.3333333,0,0,-1.3333333,0,396.85067)"
         id="path7" />
    </clipPath>
    <clipPath
       clipPathUnits="userSpaceOnUse"
       id="clipPath11">
      <path
         d="M 0,297.638 H 680.315 V 0 H 0 Z"
         transform="translate(-546.00001,-181.63781)"
         id="path11" />
    </clipPath>
    <clipPath
       clipPathUnits="userSpaceOnUse"
       id="clipPath13">
      <path
         d="M 0,297.638 H 680.315 V 0 H 0 Z"
         transform="translate(-510.00001,-181.63781)"
         id="path13" />
    </clipPath>
  </defs>
  <sodipodi:namedview
     id="namedview1"
     pagecolor="#ffffff"
     bordercolor="#000000"
     borderopacity="0.25"
     inkscape:showpageshadow="2"
     inkscape:pageopacity="0.0"
     inkscape:pagecheckerboard="0"
     inkscape:deskcolor="#d1d1d1"
     showgrid="false" />
  <g
     id="layer-MC0"
     inkscape:groupmode="layer"
     inkscape:label="Layer 1">
    <path
       id="path1"
       d="m 0.5,0.138 h 679 v 297 H 0.5 Z"
       style="fill:#3f4143;fill-opacity:1;fill-rule:nonzero;stroke:none"
       transform="matrix(1.3333333,0,0,-1.3333333,0,396.85067)" />
    <path
       id="path2"
       d="M 6.3983984,-74.603144 H 51.152305 c 7.458984,0 12.878906,1.69074 16.253906,5.07222 3.375,3.374875 5.0625,8.790526 5.0625,16.246954 v 10.659587 c 0,7.459729 -1.6875,12.875381 -5.0625,16.246954 -3.375,3.374875 -8.794922,5.059011 -16.253906,5.059011 H 25.581992 V 7.5554941e-4 H 6.3983984 Z M 53.285117,-53.28397 c 0,-4.259872 -2.132812,-6.393111 -6.398437,-6.393111 H 25.581992 v 23.445808 H 46.88668 c 4.265625,0 6.398437,-2.129936 6.398437,-6.39311 z m 30.902344,-21.319174 h 20.249999 l 17.57813,36.245237 17.58984,-36.245237 h 20.25 l -28.24219,54.883003 V 7.5554941e-4 H 112.42965 V -19.720141 Z m 108.489259,23.445808 c 0,4.263174 2.12695,6.39311 6.38672,6.39311 h 19.18359 c 6.9668,0 12.08496,1.637904 15.35156,4.913713 3.26368,3.269204 4.89844,8.381051 4.89844,15.335539 v 5.336398 c 0,6.957792 -1.63476,12.0729403 -4.89844,15.3487489 -3.2666,3.26920416 -8.38476,4.900504 -15.35156,4.900504 -2.13281,0 -4.3916,-0.036325 -6.77344,-0.10567123 -2.37597,-0.072649 -4.79004,-0.16511132 -7.24218,-0.27738702 C 201.78512,0.5819474 199.3359,0.47627616 196.88375,0.37060491 194.42867,0.26493366 192.1025,0.13944906 189.89938,7.5554941e-4 184.7109,-0.2799337 179.56344,-0.63657415 174.45406,-1.0691658 V -15.453664 c 5.18555,0.283991 10.23047,0.567983 15.12891,0.858579 4.19531,0.211342 8.52539,0.389662 12.99609,0.528356 4.47657,0.141996 8.2793,0.211342 11.41407,0.211342 1.63183,0 2.92382,-0.478822 3.8789,-1.43977 0.96094,-0.957646 1.44141,-2.252119 1.44141,-3.883419 v -9.589665 h -24.50391 c -7.46191,0 -12.8789,-1.684136 -16.2539,-5.059011 -3.375,-3.38148 -5.0625,-8.800434 -5.0625,-16.260163 v -3.196555 c 0,-7.456428 1.6875,-12.872079 5.0625,-16.246954 3.375,-3.38148 8.79199,-5.07222 16.2539,-5.07222 h 37.40625 v 14.926063 h -33.15234 c -4.25977,0 -6.38672,2.133239 -6.38672,6.393111 z M 320.02438,7.5554941e-4 H 260.87984 V -74.603144 h 59.14454 v 14.926063 h -39.96094 v 14.384499 h 31.42969 v 14.926063 h -31.42969 v 15.441211 h 39.96094 z M 341.33785,-74.603144 h 44.75391 c 7.45898,0 12.8789,1.69074 16.2539,5.07222 3.375,3.374875 5.0625,8.790526 5.0625,16.246954 v 9.589665 c 0,5.901079 -0.97851,10.484569 -2.92968,13.750471 -1.9541,3.269204 -5.0625,5.435465 -9.32813,6.498782 L 408.47457,7.5554941e-4 H 387.69723 L 375.43941,-22.375131 H 360.52145 V 7.5554941e-4 h -19.1836 z m 46.88672,21.319174 c 0,-4.259872 -2.13281,-6.393111 -6.39844,-6.393111 h -21.30468 v 22.375887 h 21.30468 c 4.26563,0 6.39844,-2.129936 6.39844,-6.393111 z m 0,0"
       style="fill:#ffffff;fill-opacity:1;fill-rule:nonzero;stroke:none"
       aria-label="PYSER"
       transform="matrix(1.3333333,0,0,1.182914,87.113333,207.4952)" />
    <path
       id="path3"
       d="m 0,0 h -45.682 c 0,0 -6.852,4.567 -6.852,9.136 v 39.972 c 0,0 3.426,6.852 5.71,6.852 h 75.376 c 0,0 5.71,0 7.994,-6.852 V 7.994 L 5.71,-19.415 H 2.284 L 0,-17.131"
       style="fill:#ffffff;fill-opacity:1;fill-rule:nonzero;stroke:none"
       transform="matrix(1.3333333,0,0,-1.3333333,761.9388,252.47293)"
       clip-path="url(#clipPath4)" />
    <g
       opacity="0.949997"
       id="g6"
       clip-path="url(#clipPath7)">
      <path
         d="M 0,0 H 74.233 V -35.403 L 53.677,-55.961 v 14.847 H 0 Z"
         style="fill:#3f4143;fill-opacity:1;fill-rule:nonzero;stroke:none"
         transform="matrix(1.3333333,0,0,-1.3333333,701.85547,188.094)"
         clip-path="url(#clipPath5)"
         id="path6" />
    </g>
    <path
       id="path8"
       d="M 23.227981,0.00101229 V -39.233959 h 13.546875 v -7.662943 H 0.84516875 v 7.662943 H 14.403762 V 0.00101229 Z m 27.369141,0 H 85.167434 V -7.449562 H 59.421341 v -13.2376 h 24.703125 v -6.937352 H 59.421341 v -11.945695 h 25.617187 v -7.326693 H 50.597122 Z M 138.61372,-30.810032 v -1.362694 c 0,-11.680236 -3.10547,-15.237398 -18.86718,-15.237398 -15.0586,0 -19.00782,4.990646 -19.00782,17.449563 v 12.51201 c 0,13.5561516 4.34766,17.96278574 19.13672,17.96278574 14.78906,0 19.125,-2.97315074 19.125,-15.50285774 v -1.999798 h -8.625 v 2.141377 c 0,6.8665623 -1.35937,7.7868232 -10.5,7.7868232 -8.76562,0 -10.3125,-1.6989433 -10.3125,-11.1670132 v -11.025434 c 0,-9.149517 1.10156,-10.565303 10.11328,-10.565303 8.95313,0 10.44141,1.221115 10.44141,7.397482 v 1.610457 z m 49.42676,2.920058 h -22.24219 v -19.006928 h -8.82422 V 0.00101229 h 8.82422 V -20.227031 h 22.24219 V 0.00101229 h 8.82422 V -46.896902 h -8.82422 z m 0,0"
       style="fill:#f8a332;fill-opacity:1;fill-rule:nonzero;stroke:none"
       aria-label="TECH"
       transform="matrix(1.3333333,0,0,0.88290174,369.26373,289.4952)" />
    <path
       id="path9"
       d="M 15.210963,-4.8503906 V 0.00117188 L 0.64455625,-6.4675781 V -10.674609 L 15.210963,-17.155078 v 4.851562 l -9.2226567,3.7265629 z m 1.297851,4.85156248 9.714844,-22.65234388 h 5.496094 L 22.333033,0.00117188 Z M 42.246119,-8.5769531 33.011744,-12.303516 v -4.851562 l 14.566406,6.480469 v 4.2070309 L 33.011744,0.00117188 V -4.8503906 Z m 0,0"
       style="fill:#ffffff;fill-opacity:1;fill-rule:nonzero;stroke:none"
       aria-label="&lt;/&gt;"
       transform="matrix(1.3333333,0,0,1.3333333,717.93747,228.35)" />
    <path
       id="path10"
       d="m 0,0 h -7 c 0,0 -2,11 7,14 h 67 c 0,0 5,-3 6,-7 V -30 L 62,-40 v 8 l 4,3 V 7 H 0 Z"
       style="fill:#6f7475;fill-opacity:1;fill-rule:nonzero;stroke:none"
       transform="matrix(1.3333333,0,0,-1.3333333,728,154.66693)"
       clip-path="url(#clipPath11)" />
    <path
       id="path12"
       d="m 0,0 h 7 v 18 c 0,0 1,3 4,3 h 60 c 0,0 2,-1 2,-3 v -4 h 6 v 6 c 0,0 -1,5 -7,8 H 8 C 8,28 2,25 1,20 V 0"
       style="fill:#f8a332;fill-opacity:1;fill-rule:nonzero;stroke:none"
       transform="matrix(1.3333333,0,0,-1.3333333,680,154.66693)"
       clip-path="url(#clipPath13)" />
  </g>
</svg>
